<svg width="69" height="45" viewBox="0 0 69 45" fill="none" xmlns="http://www.w3.org/2000/svg">
<path d="M5.51662 19.7875C4.63451 19.7875 3.86208 19.556 3.19935 19.0928C2.53661 18.6296 2.01854 17.9834 1.64517 17.1543C1.27646 16.3252 1.0921 15.3594 1.0921 14.257C1.0921 13.1593 1.27646 12.1982 1.64517 11.3737C2.01854 10.5446 2.53894 9.90073 3.20635 9.44216C3.87375 8.97897 4.65085 8.74738 5.53762 8.74738C6.19103 8.74738 6.73475 8.86319 7.1688 9.09478C7.60285 9.32174 7.95057 9.60428 8.21192 9.94242C8.47329 10.2805 8.67631 10.6094 8.821 10.929H8.93301V5.33597H10.1862V19.5652H8.96802V17.5851H8.821C8.67631 17.9093 8.47097 18.2428 8.20492 18.5856C7.9389 18.9237 7.58653 19.2086 7.1478 19.4402C6.71376 19.6719 6.17002 19.7875 5.51662 19.7875ZM5.66363 18.655C6.35906 18.655 6.95179 18.4675 7.44184 18.0923C7.9319 17.7125 8.30527 17.1914 8.56197 16.529C8.82334 15.862 8.95401 15.0977 8.95401 14.2362C8.95401 13.3839 8.82567 12.6313 8.56897 11.9781C8.31227 11.3204 7.9389 10.8063 7.44884 10.4357C6.95878 10.0605 6.36371 9.87293 5.66363 9.87293C4.94489 9.87293 4.33814 10.0675 3.84341 10.4566C3.35336 10.841 2.97999 11.3621 2.72329 12.0198C2.47126 12.6776 2.34525 13.4163 2.34525 14.2362C2.34525 15.0653 2.47359 15.8134 2.73029 16.4804C2.98699 17.1474 3.36037 17.6777 3.85041 18.0714C4.34514 18.4605 4.94954 18.655 5.66363 18.655ZM18.0831 19.7875C17.0796 19.7875 16.2115 19.556 15.4788 19.0928C14.746 18.6249 14.1789 17.9788 13.7776 17.1543C13.3809 16.3252 13.1825 15.371 13.1825 14.2918C13.1825 13.2172 13.3809 12.263 13.7776 11.4293C14.1789 10.5909 14.732 9.93546 15.4368 9.46302C16.1462 8.98592 16.9653 8.74738 17.894 8.74738C18.4774 8.74738 19.0399 8.85391 19.5813 9.06698C20.1225 9.27542 20.6081 9.59733 21.0375 10.0327C21.4714 10.4635 21.8144 11.0077 22.0666 11.6655C22.3185 12.3186 22.4445 13.0921 22.4445 13.9861V14.5975H14.0436V13.5067H21.1704C21.1704 12.8212 21.0304 12.2051 20.7504 11.6585C20.475 11.1073 20.09 10.672 19.5952 10.3523C19.1052 10.0327 18.5381 9.87293 17.894 9.87293C17.2126 9.87293 16.6129 10.0536 16.0948 10.4149C15.5768 10.7762 15.1707 11.2533 14.8767 11.8461C14.5873 12.439 14.4403 13.0875 14.4356 13.7915V14.4446C14.4356 15.2923 14.5827 16.0334 14.8767 16.668C15.1754 17.2979 15.5978 17.7866 16.1438 18.134C16.6899 18.4813 17.3363 18.655 18.0831 18.655C18.5918 18.655 19.0375 18.5763 19.4202 18.4188C19.8075 18.2613 20.132 18.0506 20.3934 17.7866C20.6594 17.5179 20.8601 17.2238 20.9955 16.9042L22.1785 17.2863C22.0151 17.7356 21.7468 18.1502 21.3734 18.53C21.0048 18.9098 20.5427 19.2155 19.9873 19.4471C19.4366 19.674 18.8018 19.7875 18.0831 19.7875ZM33.1874 8.89328L29.2599 19.5652H27.9298L24.0023 8.89328H25.3533L28.5459 17.9325H28.6438L31.8362 8.89328H33.1874Z" fill="#0F172A"/>
<path d="M1.49536 39.1304V22.0553H5.07417V28.4752H5.18339C5.34021 28.1305 5.56703 27.7805 5.86386 27.4246C6.1663 27.0634 6.55834 26.7633 7.04 26.5242C7.52726 26.2796 8.13213 26.1573 8.85462 26.1573C9.79552 26.1573 10.6636 26.4019 11.4589 26.891C12.2542 27.3747 12.8899 28.1056 13.3659 29.0839C13.842 30.0565 14.08 31.2766 14.08 32.744C14.08 34.1724 13.8476 35.3786 13.3827 36.3624C12.9235 37.3406 12.2962 38.0827 11.5009 38.5885C10.7112 39.0888 9.82634 39.3388 8.84622 39.3388C8.15173 39.3388 7.56087 39.225 7.07361 38.997C6.59195 38.7691 6.19711 38.4828 5.88908 38.1383C5.58104 37.7881 5.34581 37.4351 5.18339 37.0794H5.02378V39.1304H1.49536ZM4.99856 32.7273C4.99856 33.4888 5.10498 34.1531 5.3178 34.7199C5.53063 35.2869 5.83867 35.7288 6.2419 36.0456C6.64516 36.3569 7.13522 36.5124 7.71208 36.5124C8.29456 36.5124 8.78741 36.3541 9.19065 36.0372C9.59391 35.715 9.89914 35.2702 10.1064 34.7032C10.3192 34.1308 10.4256 33.4722 10.4256 32.7273C10.4256 31.988 10.322 31.3376 10.1148 30.7763C9.90754 30.215 9.6023 29.7757 9.19905 29.459C8.79581 29.1422 8.30016 28.9837 7.71208 28.9837C7.12962 28.9837 6.63676 29.1365 6.23351 29.4423C5.83587 29.7479 5.53063 30.1815 5.3178 30.743C5.10498 31.3044 4.99856 31.9659 4.99856 32.7273ZM20.1476 39.3723C19.3243 39.3723 18.5906 39.2304 17.9466 38.9469C17.3025 38.6579 16.7928 38.2328 16.4176 37.6715C16.0479 37.1045 15.8631 36.3986 15.8631 35.5537C15.8631 34.8421 15.9947 34.2446 16.258 33.7612C16.5212 33.2775 16.8796 32.8886 17.3333 32.5939C17.7869 32.2993 18.3022 32.077 18.8791 31.9269C19.4615 31.7769 20.0721 31.6712 20.7104 31.61C21.461 31.5323 22.0658 31.4599 22.5251 31.3934C22.9843 31.321 23.3176 31.2153 23.5248 31.0764C23.732 30.9375 23.8357 30.7319 23.8357 30.4595V30.4094C23.8357 29.8814 23.6676 29.4729 23.3316 29.1839C23.0012 28.8949 22.5307 28.7503 21.9203 28.7503C21.2762 28.7503 20.7637 28.892 20.3828 29.1755C20.0021 29.4535 19.75 29.8037 19.6268 30.2261L16.3168 29.9593C16.4848 29.1811 16.8152 28.5085 17.3081 27.9415C17.8009 27.369 18.4366 26.93 19.2151 26.6244C19.9991 26.3131 20.9066 26.1573 21.9371 26.1573C22.6539 26.1573 23.3399 26.2407 23.9952 26.4076C24.6561 26.5743 25.2414 26.8327 25.751 27.183C26.2663 27.533 26.6724 27.9834 26.9691 28.5335C27.266 29.0782 27.4145 29.7313 27.4145 30.4928V39.1304H24.0205V37.3545H23.9197C23.7125 37.7548 23.4351 38.1078 23.088 38.4134C22.7408 38.7135 22.3235 38.9499 21.8361 39.122C21.349 39.2889 20.7861 39.3723 20.1476 39.3723ZM21.1725 36.921C21.6989 36.921 22.1638 36.8182 22.5671 36.6126C22.9703 36.4013 23.2867 36.1178 23.5164 35.7621C23.746 35.4064 23.8608 35.0034 23.8608 34.5532V33.1942C23.7488 33.2664 23.5948 33.3331 23.3989 33.3943C23.2084 33.4499 22.9928 33.5027 22.7519 33.5526C22.5111 33.5972 22.2702 33.6389 22.0295 33.6778C21.7886 33.7111 21.5702 33.7416 21.3742 33.7694C20.9541 33.8306 20.5872 33.9279 20.2736 34.0613C19.9599 34.1947 19.7164 34.3753 19.5428 34.6033C19.3691 34.8255 19.2823 35.1035 19.2823 35.4369C19.2823 35.9206 19.4587 36.2902 19.8117 36.5459C20.1701 36.7959 20.6237 36.921 21.1725 36.921ZM37.0546 26.324V28.9921H29.2836V26.324H37.0546ZM31.0478 23.256H34.6268V35.1951C34.6268 35.523 34.677 35.7787 34.778 35.9623C34.8787 36.1401 35.0187 36.2651 35.1979 36.3373C35.3828 36.4097 35.5957 36.4457 35.8364 36.4457C36.0044 36.4457 36.1725 36.4318 36.3405 36.404C36.5085 36.3708 36.6374 36.3457 36.7269 36.3291L37.2898 38.972C37.1106 39.0275 36.8586 39.0915 36.5337 39.1637C36.2088 39.2416 35.8139 39.2889 35.3493 39.3056C34.4868 39.3388 33.7305 39.225 33.0809 38.9638C32.4369 38.7024 31.9356 38.2968 31.5771 37.7464C31.2187 37.1962 31.0423 36.5013 31.0478 35.6621V23.256ZM46.2495 26.324V28.9921H38.4785V26.324H46.2495ZM40.2428 23.256H43.8215V35.1951C43.8215 35.523 43.872 35.7787 43.9727 35.9623C44.0736 36.1401 44.2136 36.2651 44.3928 36.3373C44.5777 36.4097 44.7904 36.4457 45.0314 36.4457C45.1993 36.4457 45.3673 36.4318 45.5354 36.404C45.7034 36.3708 45.8321 36.3457 45.9218 36.3291L46.4847 38.972C46.3055 39.0275 46.0533 39.0915 45.7286 39.1637C45.4038 39.2416 45.0089 39.2889 44.544 39.3056C43.6815 39.3388 42.9255 39.225 42.2757 38.9638C41.6316 38.7024 41.1305 38.2968 40.7721 37.7464C40.4135 37.1962 40.2372 36.5013 40.2428 35.6621V23.256ZM52.4368 22.0553V39.1304H48.8579V22.0553H52.4368ZM61.1843 39.3805C59.8569 39.3805 58.7145 39.1138 57.7567 38.5803C56.8045 38.0411 56.071 37.2796 55.5556 36.2956C55.0403 35.3064 54.7828 34.1362 54.7828 32.7856C54.7828 31.4683 55.0403 30.3122 55.5556 29.3173C56.071 28.3224 56.7963 27.5469 57.7315 26.9912C58.6725 26.4354 59.7757 26.1573 61.0415 26.1573C61.8928 26.1573 62.6853 26.2935 63.4189 26.5659C64.1582 26.8327 64.8022 27.2358 65.3511 27.7748C65.9056 28.314 66.3368 28.9921 66.6449 29.8092C66.9529 30.6208 67.107 31.5712 67.107 32.6606V33.6361H56.2109V31.4351H63.7382C63.7382 30.9236 63.6261 30.4707 63.4021 30.0761C63.1782 29.6814 62.8673 29.3729 62.4696 29.1504C62.0775 28.9227 61.6211 28.8086 61.1003 28.8086C60.557 28.8086 60.0753 28.9338 59.6552 29.1839C59.2408 29.4284 58.9159 29.7591 58.6807 30.176C58.4455 30.5873 58.3251 31.0459 58.3196 31.5517V33.6444C58.3196 34.2781 58.4371 34.8255 58.6725 35.2869C58.9132 35.7482 59.2521 36.1039 59.6889 36.3541C60.1258 36.6042 60.6439 36.7292 61.243 36.7292C61.6406 36.7292 62.0048 36.6736 62.3352 36.5625C62.6656 36.4514 62.9485 36.2847 63.1837 36.0622C63.4189 35.84 63.5981 35.5676 63.7213 35.2452L67.0313 35.462C66.8633 36.2512 66.5189 36.9405 65.9981 37.5296C65.4828 38.1133 64.8162 38.5691 63.9987 38.897C63.1864 39.2195 62.2484 39.3805 61.1843 39.3805Z" fill="#0F172A"/>
</svg>
